<?xml version="1.0" encoding="utf-8"?>
<!-- Generator: Adobe Illustrator 16.0.0, SVG Export Plug-In . SVG Version: 6.00 Build 0)  -->
<!DOCTYPE svg PUBLIC "-//W3C//DTD SVG 1.1//EN" "http://www.w3.org/Graphics/SVG/1.1/DTD/svg11.dtd">
<svg version="1.1" id="Layer_1" xmlns="http://www.w3.org/2000/svg" xmlns:xlink="http://www.w3.org/1999/xlink" x="0px" y="0px"
	 width="50px" height="50px" viewBox="0 0 50 50" enable-background="new 0 0 50 50" xml:space="preserve">
<path fill="#1F87AA" d="M18.436,25.154L5.751,2.918C5.706,2.839,5.623,2.793,5.535,2.793c-0.021,0-0.042,0.002-0.063,0.007
	c-0.11,0.03-0.185,0.128-0.185,0.24v44.472c0,0.113,0.075,0.211,0.185,0.239c0.021,0.006,0.042,0.01,0.063,0.01
	c0.087,0,0.171-0.047,0.216-0.126L18.436,25.4C18.479,25.324,18.479,25.229,18.436,25.154z"/>
<path fill="#469572" d="M46.591,23.192L8.071,0.969C8.032,0.947,7.989,0.936,7.946,0.936c-0.064,0-0.128,0.025-0.176,0.074
	c-0.08,0.08-0.095,0.204-0.038,0.3l12.921,22.1c0.044,0.076,0.125,0.123,0.213,0.124l25.6,0.123c0.001,0,0.001,0,0.001,0
	c0.112,0,0.211-0.074,0.239-0.183C46.736,23.363,46.688,23.249,46.591,23.192z"/>
<path fill="#B73C3C" d="M46.371,26.178L46.371,26.178c-0.002,0-0.003,0-0.003,0l-25.599,0.236c-0.087,0-0.168,0.047-0.213,0.123
	L7.731,48.691c-0.056,0.098-0.04,0.223,0.04,0.301c0.048,0.048,0.111,0.072,0.175,0.072c0.042,0,0.086-0.011,0.125-0.033
	L46.49,26.645c0.076-0.042,0.13-0.124,0.13-0.217C46.62,26.29,46.509,26.178,46.371,26.178z"/>
</svg>
