<svg version="1.1" id="Layer_1" xmlns="http://www.w3.org/2000/svg" xmlns:xlink="http://www.w3.org/1999/xlink" x="0px" y="0px"
	 width="41.152px" height="47.798px" viewBox="0 0 41.152 47.798" enable-background="new 0 0 41.152 47.798" xml:space="preserve">
<path fill="#36A3CD" d="M13.108,24.085L0.528,2.034C0.483,1.956,0.401,1.91,0.314,1.91c-0.021,0-0.042,0.002-0.063,0.008
	C0.143,1.947,0.068,2.045,0.068,2.156v44.102c0,0.113,0.075,0.211,0.183,0.238c0.021,0.006,0.042,0.01,0.063,0.01
	c0.087,0,0.169-0.047,0.214-0.125l12.58-22.051C13.151,24.254,13.151,24.161,13.108,24.085z"/>
<path fill="#469572" d="M41.029,22.14L2.829,0.101C2.79,0.079,2.748,0.068,2.706,0.068c-0.064,0-0.127,0.024-0.175,0.073
	C2.452,0.22,2.436,0.343,2.493,0.439l12.813,21.916c0.044,0.075,0.125,0.122,0.212,0.122L40.904,22.6c0.002,0,0.002,0,0.002,0
	c0.111,0,0.209-0.075,0.238-0.182C41.174,22.31,41.127,22.196,41.029,22.14z"/>
<path fill="#BF3158" d="M40.813,25.103L40.813,25.103c-0.002,0-0.002,0-0.004,0l-25.387,0.231c-0.087,0.001-0.167,0.048-0.211,0.123
	L2.492,47.43c-0.056,0.098-0.04,0.219,0.039,0.299c0.047,0.047,0.111,0.07,0.174,0.07c0.042,0,0.085-0.012,0.124-0.033
	l38.103-22.202c0.074-0.041,0.127-0.123,0.127-0.216C41.059,25.211,40.947,25.103,40.813,25.103z"/>
</svg>